# xmcd
#
# Track frame offsets:
#	150
#	17940
#	34523
#	55904
#	69600
#	85650
#	98091
#	114259
#	127089
#	155072
#	178697
#	193386
#	206353
#	214014
#	218002
#	233100
#	239006
#	246755
#	274027
#	288937
#
# Disc length: 4075 seconds
#
# Revision: 1
# Processed by: cddbd v1.5.2PL0 Copyright (c) Steve Scherf et al.
# Submitted via: audiograbber 1.83.01
#
DISCID=250fe914
DTITLE=Münchner Seitentratzer  - Weltstubenmusik
DYEAR=1900
DGENRE=
TTITLE0=Tanz des Wassers
TTITLE1=La Cumparsita
TTITLE2=Tanz des Feuers
TTITLE3=Lecher Dodi
TTITLE4=A Jiddischer Tants
TTITLE5=It´s Ragtime
TTITLE6=Danny Boy
TTITLE7=Kinderspiel
TTITLE8=Greensleevers-Variationen
TTITLE9=Herrenwalzer
TTITLE10=Zigeuner Polka
TTITLE11=Carolan´s Air
TTITLE12=Off to California
TTITLE13=John O´Connor
TTITLE14=Marry, Young and Fair
TTITLE15=Queen´s Shilling
TTITLE16=Saltarello
TTITLE17=Czardas
TTITLE18=El Choclo
TTITLE19=Hochzeitssamba
EXTD=
EXTT0=
EXTT1=
EXTT2=
EXTT3=
EXTT4=
EXTT5=
EXTT6=
EXTT7=
EXTT8=
EXTT9=
EXTT10=
EXTT11=
EXTT12=
EXTT13=
EXTT14=
EXTT15=
EXTT16=
EXTT17=
EXTT18=
EXTT19=
PLAYORDER=
